<?xml version="1.0" standalone="no"?>
<!DOCTYPE svg PUBLIC "-//W3C//DTD SVG 20010904//EN"
 "http://www.w3.org/TR/2001/REC-SVG-20010904/DTD/svg10.dtd">
<svg version="1.0" xmlns="http://www.w3.org/2000/svg"
 width="1000.000000pt" height="1000.000000pt" viewBox="0 0 1000.000000 1000.000000"
 preserveAspectRatio="xMidYMid meet">
<metadata>
Created by potrace 1.11, written by Peter Selinger 2001-2013
</metadata>
<g transform="translate(0.000000,1000.000000) scale(0.100000,-0.100000)"
fill="#000000" stroke="none">
<path d="M3119 8246 c-2 -2 -92 -5 -199 -7 -107 -1 -208 -6 -225 -11 -18 -5
-31 -4 -33 1 -4 11 -33 2 -45 -13 -6 -8 -10 -7 -14 2 -6 14 -33 16 -33 2 0 -5
-3 -9 -7 -9 -29 5 -42 -4 -45 -28 -2 -17 -9 -28 -18 -28 -8 0 -15 -4 -15 -10
-1 -19 -17 -56 -22 -52 -2 3 0 15 7 26 7 14 7 21 0 21 -5 0 -10 -5 -10 -11 0
-6 -7 -8 -16 -5 -10 4 -13 2 -7 -7 4 -6 9 -21 10 -32 2 -14 1 -16 -6 -7 -6 10
-10 8 -16 -10 -4 -12 -7 -26 -6 -30 0 -4 -11 -3 -25 2 -35 14 -41 12 -18 -4
17 -13 17 -15 2 -21 -9 -4 -26 -1 -38 5 -13 7 -20 7 -16 2 8 -13 -4 -43 -14
-37 -4 3 -10 -5 -14 -18 -5 -18 -8 -20 -16 -7 -8 12 -10 12 -10 -5 0 -17 -2
-17 -10 -5 -6 10 -10 11 -10 3 0 -7 -11 -13 -25 -13 -14 0 -25 -4 -25 -10 0
-14 -49 -60 -64 -60 -15 0 -30 -27 -27 -47 1 -7 -6 -13 -16 -13 -15 0 -16 -2
-3 -10 13 -8 12 -10 -2 -10 -11 0 -18 -8 -18 -20 0 -18 -10 -24 -31 -22 -4 1
-6 -17 -5 -38 1 -22 -2 -40 -6 -40 -5 0 -8 -7 -6 -16 2 -10 -4 -19 -12 -21
-12 -4 -12 -3 -1 5 8 6 9 12 3 16 -5 3 -18 -16 -28 -42 -17 -43 -18 -84 -18
-492 0 -245 3 -459 6 -476 8 -41 27 -76 38 -69 4 3 14 -12 20 -32 7 -21 18
-44 24 -52 9 -12 8 -12 -11 -2 -31 16 -29 8 7 -29 17 -17 30 -26 30 -20 0 5 5
10 10 10 7 0 7 -7 0 -20 -12 -22 -6 -40 13 -40 7 0 6 4 -3 10 -13 8 -13 11 -1
22 9 8 12 9 7 1 -3 -6 2 -16 11 -22 16 -9 16 -11 -7 -20 -18 -7 -20 -10 -7
-10 9 -1 17 -6 17 -12 0 -5 4 -7 10 -4 16 10 63 -26 51 -38 -18 -18 -12 -31 6
-16 15 12 16 12 11 -3 -6 -14 14 -33 32 -31 3 1 12 -6 20 -15 13 -14 12 -15
-3 -9 -11 4 -16 3 -12 -3 3 -6 13 -10 21 -10 8 0 12 -4 9 -10 -3 -5 3 -10 14
-10 11 0 22 4 25 9 8 12 62 -15 70 -35 3 -8 11 -12 16 -9 6 4 17 2 24 -4 14
-12 110 -23 179 -21 34 1 37 -1 37 -27 0 -15 0 -215 -1 -443 -2 -871 2 -1295
11 -1298 5 -2 6 -17 3 -34 -5 -25 -3 -29 8 -23 8 5 5 -1 -5 -13 -11 -12 -26
-22 -35 -22 -14 0 -14 -2 -1 -10 13 -9 13 -10 -1 -10 -8 0 -20 5 -27 12 -9 9
-12 9 -12 0 0 -10 -5 -10 -21 -2 -11 6 -25 9 -32 6 -7 -2 -5 -5 5 -5 9 -1 19
-5 23 -10 3 -6 -7 -6 -27 0 -40 11 -40 11 -35 2 2 -5 -11 -21 -28 -38 -30 -29
-33 -30 -140 -32 -61 -2 -126 -3 -146 -3 -31 0 -38 -4 -43 -26 -5 -17 -12 -24
-21 -20 -8 3 -15 1 -15 -4 0 -5 -10 -14 -21 -21 -17 -9 -20 -8 -14 2 6 9 3 11
-9 6 -10 -4 -21 -7 -24 -7 -4 0 0 -5 8 -11 12 -9 11 -10 -7 -6 -20 4 -21 2
-12 -20 5 -14 7 -28 4 -31 -3 -3 -5 -1 -5 5 0 5 -7 10 -15 10 -8 0 -11 -5 -8
-10 4 -6 0 -8 -11 -4 -14 6 -15 4 -5 -14 6 -13 7 -19 1 -15 -6 3 -13 0 -15 -6
-4 -10 -7 -10 -15 0 -7 11 -11 10 -16 -4 -3 -9 -4 -19 -1 -22 3 -3 5 1 5 8 0
7 2 11 5 8 3 -2 -3 -20 -12 -39 -26 -49 -32 -218 -9 -231 9 -5 14 -13 11 -19
-4 -5 -1 -9 4 -9 6 0 11 -9 11 -19 0 -11 6 -26 14 -33 7 -8 17 -24 21 -37 4
-15 13 -21 24 -18 19 4 22 -17 7 -42 -7 -10 -4 -11 11 -3 18 10 20 8 18 -18
-1 -16 1 -29 4 -28 3 0 17 0 30 -1 18 -1 22 -5 18 -22 -4 -16 -3 -18 9 -8 9 7
14 8 14 1 0 -6 -4 -14 -10 -17 -5 -3 -10 -11 -10 -16 0 -6 4 -8 9 -5 5 4 17 3
27 -1 16 -6 16 -7 -2 -14 -17 -7 -16 -8 6 -9 23 -1 24 -2 5 -11 -17 -8 -16 -9
7 -6 15 2 26 0 25 -4 -2 -9 34 -33 65 -45 11 -4 16 -15 15 -32 -1 -14 4 -27
12 -30 8 -3 11 0 7 7 -10 15 5 13 28 -4 10 -8 22 -12 26 -10 4 2 6 -7 4 -21
-2 -21 0 -23 12 -13 12 10 15 10 12 -2 -2 -8 -7 -17 -12 -20 -12 -9 48 -4 62
5 7 4 12 3 12 -3 0 -6 6 -8 13 -6 26 9 127 14 127 5 0 -4 9 -6 20 -3 11 3 20
9 20 12 0 4 10 7 23 7 25 -1 43 -34 27 -50 -6 -6 -4 -16 8 -30 9 -11 13 -17 7
-14 -6 4 -10 -8 -10 -28 0 -19 4 -34 9 -34 5 0 2 -8 -5 -17 -12 -14 -12 -16 1
-9 8 4 7 1 -3 -7 -11 -9 -18 -30 -18 -58 -3 -96 -10 -131 -25 -125 -10 4 -14
-3 -14 -27 0 -19 -3 -27 -8 -20 -4 7 -9 -33 -9 -88 -1 -55 -6 -106 -12 -113
-6 -7 -11 -29 -11 -47 1 -46 -2 -69 -9 -65 -3 1 -17 -8 -30 -21 -14 -14 -19
-23 -11 -23 13 0 5 -15 -8 -15 -18 -1 -52 -32 -52 -47 0 -9 -4 -19 -10 -23 -5
-3 -6 -13 -3 -23 4 -13 2 -13 -11 3 -15 19 -16 19 -9 1 5 -16 3 -18 -11 -13
-9 4 -15 3 -12 -1 2 -4 -2 -16 -10 -26 -13 -19 -14 -19 -34 4 -22 25 -26 20
-9 -12 8 -15 8 -19 0 -14 -6 4 -12 2 -12 -3 -1 -10 -3 -18 -8 -36 0 -2 -13 0
-27 5 -19 7 -23 7 -18 -2 5 -7 2 -9 -8 -6 -19 8 -19 6 -25 -146 -4 -131 0
-181 16 -171 5 2 11 -2 14 -10 4 -9 1 -12 -7 -9 -14 5 -15 -30 -1 -43 4 -5 5
-3 1 4 -3 6 -2 14 4 18 5 3 10 1 10 -5 0 -7 7 -9 16 -6 8 3 12 2 9 -3 -3 -5
-1 -12 5 -16 5 -3 10 -1 10 6 0 7 3 9 7 5 5 -4 -1 -14 -11 -22 -15 -10 -16
-14 -5 -15 21 -2 22 -2 49 6 18 5 21 4 10 -4 -10 -7 12 -10 75 -11 89 0 186 1
215 3 8 0 26 -3 39 -7 13 -5 21 -4 18 0 -3 5 32 8 76 7 99 -4 95 -3 182 -3 39
0 82 -2 98 -4 15 -2 27 0 27 3 0 3 60 6 132 5 180 -1 221 4 213 24 -3 9 -3 13
0 10 4 -4 25 0 47 8 22 8 62 14 89 14 31 0 60 7 81 20 18 11 27 20 19 20 -11
0 -9 4 5 15 13 10 15 14 5 15 -8 0 -11 3 -8 7 4 3 1 13 -6 21 -9 12 -9 14 0 9
9 -6 12 11 10 67 0 41 -5 72 -10 69 -5 -3 -4 4 2 15 17 32 13 37 -9 12 -11
-13 -20 -18 -20 -12 0 6 4 14 10 17 16 10 12 25 -5 19 -10 -4 -15 0 -15 16 0
11 -4 19 -9 16 -8 -5 -24 29 -22 46 0 4 -6 5 -14 2 -8 -4 -15 -2 -15 3 0 13
-105 47 -124 40 -8 -3 -16 -1 -18 5 -3 8 -11 7 -27 -2 -19 -10 -22 -10 -16 1
6 9 3 10 -9 6 -14 -6 -17 -3 -12 10 4 10 4 15 1 11 -9 -8 -65 11 -65 23 0 5
-6 9 -14 9 -18 0 -29 -27 -13 -34 7 -2 7 -5 1 -5 -29 -2 -44 26 -50 97 -4 39
-13 80 -21 90 -8 9 -11 11 -7 3 4 -9 3 -12 -4 -7 -6 4 -8 14 -5 23 4 11 3 14
-5 9 -9 -5 -9 -1 -3 17 7 17 6 24 -4 24 -7 0 -11 -7 -8 -16 4 -14 4 -14 -6 -1
-6 8 -11 23 -11 32 0 9 -6 18 -12 21 -10 3 -10 8 1 21 10 12 16 14 21 5 4 -6
7 4 7 22 -3 97 4 170 14 163 7 -4 7 1 -1 16 -10 19 -8 25 17 46 33 28 35 48
37 346 0 102 4 184 8 182 3 -2 9 0 12 4 7 11 56 3 56 -9 0 -5 5 -9 11 -9 5 0
7 5 3 11 -5 9 11 11 62 7 44 -4 62 -2 49 3 -14 6 -8 7 20 4 35 -5 68 -6 139
-4 10 0 16 3 12 6 -8 9 26 63 41 63 7 0 17 9 23 21 7 12 18 18 26 15 8 -3 13
0 11 7 -1 7 6 11 16 11 24 -2 21 5 -5 16 -17 6 -18 9 -6 9 9 1 24 -6 32 -15
15 -14 16 -14 13 3 -1 10 -6 24 -10 31 -5 7 -2 14 7 18 13 5 16 26 16 123 0
119 6 141 40 141 13 0 15 7 12 31 -3 19 -1 29 5 26 5 -3 10 0 10 8 0 8 -4 15
-8 15 -9 0 -5 142 5 158 10 16 -4 41 -20 35 -16 -6 -44 13 -44 30 0 5 8 2 19
-7 15 -13 20 -14 24 -4 2 8 21 15 42 16 21 2 34 -1 31 -7 -7 -11 22 -23 36
-14 6 3 8 1 4 -5 -3 -6 4 -19 16 -29 13 -10 24 -24 26 -32 1 -7 16 -25 33 -41
21 -19 29 -33 23 -42 -6 -11 -5 -11 9 1 15 12 18 10 27 -14 9 -24 12 -26 27
-14 12 10 15 10 9 2 -4 -8 -1 -13 9 -13 9 0 13 -5 10 -11 -4 -6 -14 -8 -24 -4
-12 5 -13 3 -5 -5 9 -9 17 -9 33 -1 17 9 20 9 15 -3 -4 -10 3 -17 21 -22 15
-4 23 -9 18 -13 -15 -11 -9 -44 10 -47 9 -1 17 2 17 8 0 6 -7 8 -15 4 -8 -3
-15 -1 -15 4 0 13 27 13 35 0 4 -6 10 -8 15 -5 5 3 7 -4 5 -15 -2 -12 3 -24
16 -30 14 -8 19 -7 19 1 0 7 3 9 7 5 5 -4 -1 -15 -12 -23 -14 -11 -15 -14 -4
-10 17 6 69 -42 69 -63 0 -5 8 -10 17 -10 15 0 14 -2 -3 -16 -10 -8 -13 -13
-6 -9 7 4 12 -1 13 -12 0 -16 1 -16 9 2 5 11 9 14 9 8 1 -7 11 -15 24 -18 12
-3 28 -19 36 -36 7 -16 16 -27 20 -24 5 2 13 -7 20 -21 6 -14 16 -22 21 -19 6
4 7 -1 3 -12 -6 -15 -4 -16 8 -6 12 10 15 8 15 -7 0 -10 -4 -17 -7 -14 -4 2
-11 0 -14 -6 -4 -6 -3 -10 2 -9 20 3 34 -2 28 -11 -3 -5 -13 -6 -22 -3 -11 4
-14 3 -9 -6 4 -6 13 -11 19 -10 33 4 47 -2 47 -21 0 -11 5 -20 10 -20 6 0 10
-5 10 -11 0 -5 -4 -7 -10 -4 -5 3 -10 2 -10 -4 0 -5 4 -12 8 -15 5 -3 8 -58 7
-123 -1 -71 3 -124 9 -132 9 -12 8 -13 -3 -7 -10 6 -12 4 -8 -10 4 -11 9 -32
12 -49 5 -24 4 -27 -5 -15 -9 12 -10 9 -6 -15 5 -23 4 -27 -4 -15 -9 12 -13
12 -17 2 -4 -10 -9 -7 -17 10 -8 17 -21 24 -50 26 -26 2 -36 0 -31 -8 4 -6 13
-9 21 -6 10 4 11 0 4 -20 -9 -22 -7 -26 20 -35 23 -8 28 -15 21 -26 -4 -9 -6
-24 -4 -34 3 -11 0 -19 -6 -19 -6 0 -11 -5 -11 -11 0 -5 4 -8 9 -5 15 9 21
-22 7 -33 -7 -6 -15 -9 -17 -6 -3 2 -5 -4 -5 -15 0 -12 4 -16 11 -10 7 6 11 2
11 -10 0 -10 -3 -17 -7 -14 -10 6 -22 -33 -14 -46 3 -5 0 -10 -7 -10 -17 0
-53 -83 -38 -88 5 -2 7 -9 3 -15 -4 -7 -8 -16 -9 -22 -4 -43 -18 -75 -30 -71
-21 8 -18 -41 4 -54 12 -8 13 -13 4 -16 -6 -3 -10 -10 -7 -15 4 -5 -1 -6 -9
-3 -10 4 -16 1 -16 -9 0 -8 -6 -18 -12 -20 -10 -4 -10 -8 -1 -14 8 -6 8 -13
-2 -26 -8 -12 -15 -14 -20 -8 -3 6 -1 11 4 11 6 0 11 5 11 10 0 21 -20 9 -26
-15 -3 -14 -10 -25 -15 -25 -17 0 -31 -53 -21 -75 8 -17 5 -26 -14 -44 -13
-12 -28 -20 -34 -16 -14 9 -13 -8 3 -24 10 -10 9 -11 -5 -6 -13 5 -18 2 -18
-10 0 -10 5 -14 13 -9 9 6 9 4 0 -7 -9 -9 -13 -53 -13 -145 0 -134 4 -164 22
-164 6 0 4 8 -3 18 -13 15 -12 16 4 3 14 -11 15 -16 5 -29 -11 -13 -10 -15 5
-9 12 4 16 3 11 -4 -3 -6 3 -17 15 -25 12 -8 21 -22 21 -30 0 -8 4 -14 9 -14
6 0 8 -9 6 -19 -3 -15 1 -18 13 -14 14 5 14 2 -3 -17 l-20 -23 20 10 c18 9
125 9 232 0 44 -4 73 -25 73 -52 0 -9 4 -14 9 -11 5 3 14 -1 21 -8 6 -8 21
-12 33 -10 42 10 157 9 157 -1 0 -5 4 -4 9 4 5 7 14 10 20 7 15 -10 14 7 -1
24 -7 8 -4 7 8 -3 24 -20 35 -22 32 -6 -2 6 3 14 10 16 8 3 10 -2 6 -14 -5
-14 -4 -15 4 -4 7 10 7 21 0 34 -6 12 -6 17 0 13 5 -3 22 6 38 19 16 14 35 25
42 25 10 0 9 4 -2 16 -17 17 -21 28 -7 20 5 -3 12 1 15 10 9 23 8 26 -6 18 -7
-3 -1 4 13 17 32 29 53 80 47 114 -3 13 -1 22 3 19 5 -3 9 -15 10 -27 0 -12 7
0 15 27 9 27 22 59 30 71 8 12 16 44 18 71 14 179 14 196 7 164 -5 -22 -7 7
-5 78 2 61 5 116 8 120 5 8 1 51 -10 102 -4 20 -2 22 6 10 9 -12 10 -12 6 5
-2 11 -8 39 -11 63 -4 23 -10 40 -15 37 -4 -3 -10 9 -12 26 -3 16 -1 32 3 34
11 7 27 92 32 167 3 45 1 66 -6 61 -6 -4 -7 4 -3 23 4 16 7 86 7 157 -1 81 2
127 9 127 5 0 10 4 10 10 0 5 -8 6 -17 3 -15 -6 -16 -4 -6 9 7 8 10 18 6 21
-3 4 -1 8 5 8 7 1 18 2 24 3 15 1 26 68 32 196 5 105 14 160 27 160 5 0 9 9 9
21 0 11 4 17 10 14 6 -4 8 26 6 82 -2 48 -1 131 3 183 4 52 3 115 -2 140 -5
25 -9 57 -8 72 0 15 -5 30 -10 33 -5 4 -9 12 -9 18 0 8 3 7 9 -2 7 -10 9 -7 8
12 -2 19 -5 23 -14 15 -15 -12 -17 3 -3 20 7 9 7 9 -2 2 -17 -14 -25 -13 -32
6 -3 9 -2 12 4 9 14 -9 7 53 -11 93 -8 18 -17 32 -21 32 -4 0 -5 8 -2 18 5 14
4 14 -4 2 -8 -10 -8 -18 0 -27 6 -8 8 -16 4 -20 -3 -3 -6 -1 -6 6 0 6 -10 16
-22 21 -13 5 -17 9 -10 9 20 1 15 66 -8 86 -11 10 -22 16 -25 13 -3 -3 -31 20
-62 51 -31 31 -52 50 -48 42 5 -9 3 -12 -6 -9 -8 2 -20 17 -27 31 -10 20 -20
27 -40 26 l-27 -1 25 -8 c23 -7 23 -8 3 -9 -12 -1 -28 5 -35 12 -7 8 -19 12
-26 9 -7 -2 -10 2 -6 11 3 8 0 18 -7 23 -8 5 -10 3 -4 -7 4 -8 -2 -4 -14 9
-12 12 -33 22 -46 22 -14 0 -25 5 -25 10 0 6 -4 10 -10 10 -5 0 -7 -8 -4 -17
5 -15 3 -15 -10 1 -12 15 -16 16 -16 5 0 -12 -2 -12 -9 0 -5 7 -10 9 -12 4 -2
-6 -26 -13 -53 -15 -27 -3 -43 -2 -36 2 15 9 -8 18 -60 25 -22 3 -30 0 -27 -9
3 -8 -5 -12 -23 -12 -17 0 -26 4 -24 11 3 8 -12 9 -53 4 -98 -12 -193 -11
-193 4 0 9 -3 8 -9 -2 -5 -7 -15 -11 -22 -9 -8 3 -26 1 -41 -3 -15 -4 -30 -4
-32 0 -7 10 -76 1 -76 -10 0 -5 -5 -9 -11 -9 -24 0 14 30 40 31 24 2 24 2 3 6
-13 3 -31 1 -40 -2 -26 -11 -252 -11 -255 -1 -2 6 -12 6 -23 2 -10 -5 -43 -8
-71 -6 -36 1 -53 -3 -53 -10 0 -9 -4 -9 -12 -3 -20 15 -50 24 -43 13 3 -6 -4
-10 -17 -10 -19 0 -20 2 -8 10 11 8 7 9 -15 4 -16 -4 -37 -13 -46 -20 -8 -8
-19 -14 -24 -14 -5 0 -19 -10 -32 -22 -17 -15 -38 -23 -68 -24 -23 -1 -48 -5
-54 -8 -6 -4 -11 -1 -11 6 0 10 -2 10 -9 -1 -7 -11 -9 -11 -14 0 -4 10 -6 9
-6 -3 -1 -20 -16 -24 -26 -8 -3 6 -23 10 -43 10 -27 0 -33 -3 -22 -10 12 -7
10 -9 -8 -7 -14 1 -21 6 -18 14 3 7 0 12 -7 10 -7 -1 -11 4 -10 10 6 30 3 658
-3 705 -6 41 -4 49 6 43 9 -5 11 -4 6 4 -4 6 0 19 9 28 9 9 14 24 12 35 -4 14
-1 18 12 13 15 -4 17 -1 14 19 -6 30 25 52 44 31 6 -7 9 -16 5 -19 -12 -12 22
-26 35 -14 9 7 14 6 19 -6 5 -13 9 -14 21 -5 11 10 13 10 11 -1 -2 -7 3 -15
10 -17 6 -3 12 -1 12 4 0 4 34 8 75 7 43 0 72 3 68 9 -3 5 5 8 18 7 42 -4 51
-1 45 15 -3 8 -2 14 2 14 4 -1 23 2 42 6 29 7 31 9 15 16 -16 7 -14 8 10 6 17
-1 33 -6 37 -12 5 -6 8 -5 8 4 0 11 3 11 15 1 9 -8 15 -8 15 -2 0 7 21 9 58 6
37 -3 50 -1 37 4 -18 8 -17 10 10 15 17 3 42 9 58 13 18 4 27 2 27 -6 0 -14
25 -40 39 -40 6 0 11 6 11 13 0 8 4 7 10 -3 7 -10 12 -12 18 -4 10 16 52 28
52 15 0 -11 22 -9 94 5 19 4 26 3 22 -5 -10 -16 0 -13 18 5 14 13 16 13 16 1
0 -9 10 -15 23 -15 12 0 41 -5 64 -10 23 -5 40 -5 37 -1 -3 5 2 9 10 9 9 0 16
-5 16 -12 0 -6 7 -3 16 8 8 10 13 13 9 7 -4 -8 1 -13 12 -14 30 -2 77 -1 88 2
6 2 29 -1 52 -5 32 -6 40 -11 36 -23 -5 -12 -3 -14 7 -8 10 6 12 4 6 -10 -5
-15 -4 -16 9 -5 11 9 15 9 15 1 0 -7 4 -9 10 -6 5 3 8 0 5 -7 -4 -9 6 -14 32
-15 22 -1 32 1 25 6 -8 5 2 7 23 6 20 -1 39 -5 42 -9 11 -11 24 -6 17 7 -4 6
-3 9 1 4 5 -4 10 -16 12 -27 2 -13 -5 -20 -27 -25 -17 -4 -28 -10 -25 -14 2
-5 -63 -7 -145 -6 -82 1 -147 -1 -145 -6 3 -4 -6 -6 -20 -3 -14 2 -25 0 -25
-6 0 -6 -4 -9 -9 -6 -4 3 -7 -5 -6 -18 2 -19 -1 -23 -16 -19 -10 3 -16 10 -12
16 3 6 1 7 -6 3 -6 -4 -9 -12 -6 -17 4 -5 -39 -8 -102 -8 -121 0 -185 -7 -195
-24 -4 -6 -10 -8 -14 -5 -10 11 -44 -37 -44 -62 0 -14 -4 -19 -12 -14 -7 5 -9
2 -5 -9 3 -8 -1 -21 -9 -27 -8 -7 -14 -9 -14 -4 -1 5 -7 -3 -15 -17 -25 -45
-20 -309 5 -294 5 3 11 1 15 -5 3 -5 15 -10 25 -10 10 0 26 -10 34 -22 9 -13
16 -17 16 -9 0 11 14 12 63 8 39 -3 51 -3 32 3 -29 7 -28 8 12 9 23 0 43 -3
45 -8 2 -5 78 -6 170 -3 92 2 165 9 162 13 -3 5 2 9 11 9 9 0 13 -4 10 -10 -3
-5 -2 -10 4 -10 5 0 12 6 14 13 4 9 6 9 6 0 1 -16 87 -18 96 -3 3 6 12 10 18
10 8 0 8 -3 -1 -9 -8 -5 4 -8 31 -7 25 1 43 5 40 9 -3 5 4 4 15 -2 24 -13 43
-15 23 -2 -10 6 -5 11 19 16 19 4 34 15 37 25 6 23 50 44 56 27 2 -7 23 -12
49 -12 30 0 43 4 38 10 -5 6 12 11 48 12 57 1 90 22 75 47 -4 6 0 5 9 -2 13
-10 18 -10 24 -1 4 8 3 9 -4 5 -7 -4 -12 -3 -12 2 0 5 9 12 20 15 12 3 20 14
20 26 0 15 4 19 17 14 11 -4 14 -3 9 6 -4 6 -4 11 1 10 4 -1 10 0 13 1 24 9
41 7 36 -5 -3 -9 0 -12 10 -8 8 3 13 11 11 18 -3 7 3 11 16 9 12 -1 38 -3 57
-4 l35 -3 -35 -8 c-20 -4 11 -5 75 -2 120 6 171 5 198 -3 9 -3 17 0 17 7 0 9
16 10 63 5 34 -4 71 -8 82 -10 11 -1 23 3 28 9 4 6 11 5 17 -5 9 -13 11 -13
21 0 8 11 12 12 16 3 3 -10 10 -10 24 -2 11 5 23 7 28 4 13 -7 300 -8 336 0
24 5 27 4 15 -5 -12 -9 -11 -10 7 -5 11 3 45 5 75 5 112 -2 182 4 225 18 20 6
35 7 38 1 6 -8 -1 -13 -17 -10 -4 0 -5 -6 -2 -14 4 -8 11 -15 18 -15 7 0 7 -3
1 -8 -12 -8 -15 -143 -3 -136 4 3 8 0 8 -5 0 -6 -6 -11 -12 -11 -9 0 -8 -4 2
-10 11 -7 11 -10 2 -10 -10 0 -10 -5 -2 -20 7 -14 7 -20 0 -20 -5 0 -10 -5
-10 -11 0 -5 5 -7 12 -3 7 5 8 3 2 -7 -10 -17 -12 -119 -2 -112 10 6 5 -28 -6
-46 -7 -11 -6 -12 5 -6 11 7 12 6 3 -6 -11 -14 -10 -75 0 -132 3 -15 2 -26 -2
-23 -4 2 -7 -13 -7 -34 0 -21 3 -36 7 -33 5 2 4 -7 -2 -21 -6 -17 -6 -26 0
-26 6 0 10 -7 10 -16 0 -8 -4 -13 -9 -10 -10 7 -8 -80 2 -91 4 -3 2 -12 -4
-20 -9 -10 -8 -13 0 -13 7 0 9 -5 4 -12 -9 -16 -10 -34 -2 -75 4 -19 3 -30 -2
-27 -12 7 -12 7 11 -53 20 -52 19 -75 -1 -30 -9 21 -9 21 -4 -3 3 -14 8 -32
10 -40 2 -8 4 -18 4 -22 1 -5 8 -8 16 -8 20 0 20 -49 -1 -78 -9 -13 -22 -21
-28 -19 -17 7 -10 -37 12 -77 3 -5 -3 -6 -13 -2 -15 5 -16 4 -6 -8 9 -11 10
-20 2 -35 -14 -26 -14 -40 0 -21 8 12 9 9 4 -10 -5 -20 -7 -113 -3 -175 0 -5
-3 -19 -8 -29 -5 -14 -4 -17 4 -12 7 4 12 2 12 -3 0 -6 -4 -11 -9 -11 -12 0
-9 -93 4 -102 6 -5 5 -8 -4 -8 -11 0 -11 -3 -1 -15 7 -9 8 -15 2 -15 -10 0
-11 -25 0 -35 3 -3 2 -24 -2 -45 -4 -22 -3 -43 1 -46 5 -3 9 -10 9 -15 0 -6
-3 -8 -8 -5 -10 6 -9 -56 1 -71 4 -7 3 -22 -3 -33 -9 -16 -8 -25 1 -36 6 -8 8
-14 3 -14 -5 0 -10 -11 -10 -25 -1 -14 1 -25 5 -25 3 0 7 -34 8 -75 0 -41 -3
-75 -8 -75 -6 0 -5 -8 1 -19 6 -12 6 -22 1 -25 -10 -7 -9 -25 2 -43 5 -8 3
-13 -4 -13 -8 0 -7 -5 2 -17 12 -14 12 -15 1 -9 -11 7 -12 4 -3 -12 13 -24 14
-35 3 -28 -10 6 -8 -36 2 -52 4 -7 4 -12 -1 -12 -7 0 -10 -74 -3 -82 5 -8 6
-47 0 -43 -9 6 -5 -123 5 -132 4 -5 5 -2 1 5 -4 7 -2 12 5 12 9 0 9 3 0 14 -9
11 -9 16 0 22 7 4 9 3 5 -4 -3 -6 -2 -13 3 -17 5 -3 8 -14 6 -25 -3 -13 2 -20
13 -21 14 0 13 -2 -3 -9 -11 -5 -14 -9 -7 -9 6 -1 12 -6 12 -11 0 -7 -6 -7
-19 0 -14 7 -22 7 -26 -1 -5 -7 -59 -8 -165 -5 -131 5 -160 3 -170 -9 -7 -8
-17 -12 -24 -8 -21 13 -35 11 -29 -4 5 -13 2 -13 -15 -4 -14 7 -23 8 -27 1 -3
-5 -19 -10 -35 -10 -23 0 -28 4 -24 17 5 15 3 15 -10 -1 -9 -11 -16 -14 -16
-8 0 7 -7 12 -15 12 -8 0 -15 -6 -15 -12 0 -10 -2 -10 -8 -1 -4 6 -22 13 -40
16 -18 3 -30 1 -26 -4 3 -5 9 -7 14 -4 5 3 11 2 14 -3 2 -4 -5 -9 -16 -9 -23
-2 -40 -22 -31 -37 3 -5 1 -6 -4 -3 -6 4 -16 0 -23 -8 -8 -9 -28 -14 -53 -13
-28 1 -44 -4 -53 -16 -7 -10 -17 -16 -22 -12 -5 3 -9 -1 -9 -8 0 -9 7 -12 16
-9 11 4 9 0 -4 -10 -11 -9 -25 -17 -32 -17 -6 0 -15 -5 -19 -12 -5 -7 -3 -8 7
-3 12 8 12 6 0 -8 -13 -17 -37 -24 -27 -9 3 5 -1 9 -9 9 -11 0 -12 -4 -4 -13
6 -7 12 -38 13 -69 2 -37 0 -52 -6 -43 -7 9 -8 5 -3 -12 3 -14 6 -29 6 -35 -2
-37 -9 -90 -11 -90 -10 0 -3 -55 7 -59 9 -4 10 1 3 20 -15 37 -11 44 5 9 8
-19 10 -36 4 -46 -6 -12 -3 -21 9 -30 15 -12 16 -12 7 1 -5 9 0 4 13 -10 12
-14 27 -24 32 -23 6 2 10 -2 10 -8 0 -5 5 -7 10 -4 6 3 10 2 10 -4 0 -5 14 -8
31 -6 24 3 29 0 25 -11 -5 -12 -2 -12 15 -4 13 7 25 8 32 2 13 -11 97 -21 97
-12 0 3 18 4 40 2 24 -3 40 0 40 7 0 7 8 8 24 1 13 -5 43 -7 67 -5 24 2 76 7
114 10 39 3 85 8 103 10 17 2 32 0 32 -4 0 -7 46 -34 62 -35 3 -1 10 -5 15
-10 5 -6 2 -6 -7 -1 -13 8 -13 7 -1 -8 14 -18 37 -24 26 -8 -3 5 -1 13 5 16 6
4 9 1 8 -7 -2 -8 6 -13 19 -12 18 0 20 -2 11 -13 -8 -10 -8 -12 3 -8 8 3 73 7
144 10 169 6 183 7 178 22 -3 7 3 10 16 6 13 -3 21 -1 21 7 0 7 8 10 19 7 14
-3 18 -1 14 9 -3 8 0 15 6 15 21 3 26 4 40 13 10 7 12 6 6 -4 -6 -10 -4 -12 8
-7 10 3 17 2 17 -3 0 -6 9 -10 21 -10 11 0 17 5 14 10 -4 7 23 10 77 8 46 -1
111 1 145 5 34 3 65 3 67 -2 3 -5 18 -6 33 -4 23 4 25 2 13 -7 -12 -10 -11
-11 7 -7 13 3 24 -1 27 -10 4 -8 11 -11 18 -7 9 5 9 3 -1 -9 -7 -9 -11 -18 -7
-18 14 -3 26 -7 29 -8 1 -2 18 -4 37 -6 100 -11 140 -13 135 -6 -2 5 11 7 30
5 21 -1 41 4 50 12 8 9 19 13 24 9 6 -3 8 4 6 15 -4 20 7 25 47 21 10 -1 26 2
36 8 13 7 22 7 29 0 8 -8 13 -7 17 0 4 6 13 11 19 11 7 0 6 -4 -3 -11 -13 -9
-13 -10 0 -5 8 3 23 9 33 12 10 4 16 13 13 21 -3 8 -1 11 4 8 5 -3 12 5 16 19
4 17 11 23 22 19 10 -4 13 -2 8 5 -4 7 -2 10 7 6 30 -11 36 55 27 309 0 15
-10 42 -21 60 -16 25 -20 27 -16 9 3 -12 1 -20 -4 -16 -5 3 -9 14 -9 26 0 18
-2 19 -17 7 -15 -13 -15 -12 -3 11 12 23 12 24 -4 11 -9 -8 -19 -11 -23 -7 -3
3 0 6 7 6 9 0 7 7 -7 23 -11 12 -19 28 -17 35 1 7 0 8 -3 2 -9 -19 -21 -10
-16 13 4 18 3 19 -7 7 -10 -13 -11 -11 -7 7 3 15 -1 24 -13 28 -9 3 -26 15
-36 27 -12 14 -14 19 -4 13 12 -7 13 -6 2 6 -7 8 -17 15 -22 15 -6 1 -11 3
-12 4 -3 2 -48 9 -88 13 -45 5 -120 29 -115 37 3 5 -9 13 -27 19 -38 13 -51
14 -43 2 3 -5 1 -13 -5 -16 -6 -4 -9 -1 -8 6 4 17 -74 22 -84 6 -6 -9 -11 -8
-19 3 -8 11 -12 12 -16 3 -6 -15 -33 -17 -33 -3 0 6 -7 10 -15 10 -8 0 -15 -4
-15 -9 0 -4 -12 -6 -27 -4 -22 4 -25 2 -13 -6 24 -17 1 -12 -31 6 -22 13 -32
15 -37 6 -4 -6 -19 -10 -34 -10 -20 2 -24 5 -16 15 16 18 -8 15 -39 -5 -15
-10 -24 -12 -20 -6 5 8 3 13 -4 13 -7 0 -10 10 -6 28 3 15 2 34 -3 42 -7 11
-4 17 8 22 15 6 14 7 -3 8 l-20 1 20 9 c19 8 19 9 1 9 -20 1 -20 1 0 17 10 8
13 12 5 8 -10 -5 -13 -3 -8 8 3 9 3 19 0 22 -4 3 -5 35 -4 70 1 35 -2 67 -7
70 -8 5 -9 29 -3 101 1 17 3 18 11 5 8 -13 10 -12 10 3 0 9 -6 17 -14 17 -9 0
-12 7 -9 21 4 16 8 17 14 7 7 -10 9 -9 9 5 0 9 -6 17 -12 18 -7 0 -4 4 7 9 19
8 19 9 -3 9 -21 1 -22 2 -8 17 18 17 21 28 6 19 -11 -7 -12 -3 -12 48 -1 19 4
31 11 30 13 -3 15 13 2 21 -5 3 -11 19 -13 36 -4 24 -2 27 9 19 10 -9 13 -7
13 9 0 11 -6 22 -12 25 -10 4 -10 7 0 18 6 7 12 22 11 34 0 20 0 20 -8 0 -6
-13 -9 9 -9 60 0 56 3 71 8 50 7 -28 8 -27 9 13 0 23 -3 42 -8 42 -5 0 -7 18
-5 40 2 22 0 40 -4 40 -5 0 -9 7 -9 16 0 15 1 15 12 0 16 -21 20 -20 22 4 1
12 -3 18 -9 14 -6 -4 -5 3 2 16 8 15 8 20 1 16 -6 -4 -11 -3 -11 3 0 5 6 12
13 14 7 3 5 6 -5 6 -13 1 -18 9 -17 29 l1 27 8 -25 c7 -21 8 -22 9 -4 1 11 -5
26 -11 32 -10 10 -10 15 2 23 12 8 12 12 2 16 -10 4 -10 8 0 20 16 20 19 43 5
40 -6 -1 -12 7 -14 18 -3 16 -2 17 6 5 9 -13 11 -13 11 3 0 9 -5 17 -11 17
-12 0 -9 49 5 68 13 18 15 51 3 59 -6 3 -7 1 -3 -5 3 -6 2 -13 -3 -16 -12 -8
-8 21 6 35 11 11 6 56 -8 65 -5 3 -9 20 -8 37 1 31 1 31 9 7 5 -15 8 -19 9 -8
1 9 -3 28 -9 43 -5 14 -6 24 -1 21 5 -3 11 1 15 9 3 8 1 17 -4 20 -5 3 -7 17
-4 31 3 14 1 23 -4 21 -4 -3 -9 13 -9 35 -1 22 -10 49 -19 59 -10 11 -22 29
-28 42 -10 19 -8 26 18 50 17 15 26 27 20 27 -7 0 -9 11 -6 26 3 19 7 22 13
12 6 -9 9 -4 9 15 0 15 5 27 12 27 6 0 1 9 -12 20 -13 11 -18 20 -13 20 6 0
14 7 17 16 3 8 2 12 -4 9 -6 -3 -10 1 -10 9 0 8 8 20 18 25 9 6 12 11 6 11
-20 0 -24 43 -7 62 9 10 13 21 10 25 -4 3 -7 1 -7 -5 0 -7 -4 -12 -8 -12 -5 0
-7 20 -5 45 2 25 -1 45 -6 45 -6 0 -8 7 -5 15 5 11 2 13 -10 9 -11 -4 -16 -1
-16 11 0 9 -4 14 -9 11 -5 -3 -15 2 -22 11 -8 9 -9 14 -4 11 7 -4 10 40 10
125 0 95 4 134 13 144 7 7 10 17 7 23 -3 5 -1 10 4 10 6 0 11 7 11 15 0 9 7
18 15 21 8 4 15 10 15 16 0 5 -4 7 -8 4 -5 -3 -9 1 -9 8 0 8 6 12 14 9 7 -3
13 -10 13 -17 0 -7 3 -6 9 2 9 15 101 25 101 11 0 -6 5 -7 10 -4 6 4 8 11 5
16 -3 5 1 6 9 3 9 -3 16 -10 16 -16 0 -5 6 -6 12 -2 7 5 89 7 183 6 93 -1 235
-2 315 -1 306 2 318 4 305 37 -3 9 -3 13 1 10 10 -10 34 18 34 39 0 13 2 15 9
5 12 -20 44 35 42 73 -1 16 -3 47 -4 68 -2 24 2 37 10 37 7 0 10 7 7 15 -4 8
-9 13 -13 11 -3 -2 -7 16 -7 41 -1 26 -7 49 -15 54 -8 5 -9 9 -4 9 6 1 0 5
-12 10 -13 5 -23 18 -23 28 0 21 -55 57 -65 42 -4 -6 -12 -4 -22 6 -9 9 -25
13 -36 10 -23 -6 -97 15 -97 26 0 5 -10 8 -23 8 -13 0 -28 5 -35 12 -8 8 -15
8 -26 -1 -8 -7 -20 -10 -26 -6 -16 10 -309 12 -303 2 3 -5 -12 -5 -34 0 -58
12 -204 8 -213 -7 -4 -7 -9 -8 -11 -2 -2 5 -24 13 -49 16 -32 5 -41 4 -30 -3
11 -8 5 -9 -23 -4 -28 4 -49 0 -85 -18 -26 -13 -48 -26 -50 -29 -4 -8 -223 7
-231 16 -3 5 -4 8 -2 6 2 -1 11 4 20 12 9 8 23 16 31 18 17 4 42 46 35 59 -7
11 33 51 44 45 4 -3 8 1 8 9 0 12 -4 12 -16 3 -9 -7 -4 1 12 18 15 17 27 39
27 50 1 25 26 58 39 49 7 -4 8 0 4 11 -4 12 -3 15 6 10 6 -4 10 -4 9 1 -1 4 3
17 9 28 6 11 13 24 15 30 1 5 12 8 23 6 17 -3 18 -1 5 15 -13 16 -13 17 2 12
10 -4 19 -1 22 8 4 10 2 13 -6 8 -14 -9 31 58 47 68 5 4 11 12 11 18 1 5 2 15
3 20 0 6 8 10 17 10 12 0 15 6 11 21 -3 12 -3 18 0 15 12 -12 31 15 26 37 -4
18 -3 19 6 7 9 -13 11 -12 12 5 1 11 2 26 2 33 -1 6 4 12 9 12 6 0 7 7 4 16
-5 14 -4 15 9 4 13 -11 14 -10 9 4 -4 11 3 23 20 37 24 19 38 47 16 34 -5 -3
-10 -4 -10 -1 0 3 17 14 38 25 20 11 31 20 24 21 -21 0 -3 20 19 20 12 0 17 4
13 11 -3 6 6 3 22 -7 29 -18 29 -18 12 1 -16 19 -15 21 8 44 13 12 22 26 20
30 -2 3 2 12 10 19 10 9 14 10 14 1 0 -7 8 -5 20 6 11 10 20 28 20 39 0 18 -2
19 -11 6 -9 -13 -10 -13 -6 0 2 8 12 14 21 14 13 -2 14 1 5 12 -14 18 -4 48
13 38 8 -5 7 0 -2 11 -9 11 -10 16 -2 11 7 -4 12 -2 13 6 0 7 4 5 8 -5 9 -24
23 -26 27 -4 1 9 -1 15 -6 12 -4 -3 -11 2 -14 11 -3 8 -2 12 4 9 6 -3 10 1 10
9 0 8 9 18 21 21 15 5 19 13 16 27 -4 15 -3 17 8 8 10 -8 14 -3 19 26 5 25 11
34 21 30 9 -3 12 0 9 8 -3 8 0 17 7 22 8 4 10 3 5 -4 -4 -7 -5 -12 -2 -12 3 0
13 14 21 31 13 24 14 34 4 45 -9 11 -8 14 3 14 8 0 20 -10 27 -22 8 -15 10
-16 6 -4 -3 10 0 26 7 35 12 14 11 14 -4 2 -10 -7 -18 -9 -18 -3 0 5 11 17 25
26 25 16 25 19 25 146 0 111 -2 130 -16 130 -8 0 -12 5 -9 10 3 6 0 10 -7 10
-10 0 -10 2 0 9 10 6 7 10 -12 15 -16 4 -28 15 -32 31 -3 14 -12 25 -20 25 -8
0 -14 8 -14 18 0 14 -2 15 -10 2 -5 -8 -12 -11 -16 -7 -4 4 -13 2 -21 -4 -10
-9 -13 -7 -13 7 0 15 -2 16 -9 5 -7 -11 -23 -13 -67 -8 -42 4 -54 3 -44 -4 12
-9 11 -9 -5 -4 -68 24 -125 28 -115 9 2 -5 10 -8 17 -6 23 5 14 -18 -12 -30
-13 -6 -22 -15 -19 -19 7 -11 -34 -31 -47 -23 -8 4 -8 1 -1 -13 16 -29 -3 -54
-36 -47 -24 5 -25 4 -8 -7 17 -11 16 -13 -15 -26 -19 -9 -28 -17 -21 -20 6 -3
9 -9 6 -14 -3 -6 -11 -5 -20 2 -12 10 -13 9 -8 -5 3 -9 1 -16 -5 -16 -6 0 -11
-6 -11 -13 0 -17 -29 -77 -37 -77 -3 0 -11 8 -18 17 -11 15 -12 13 -9 -14 2
-18 -1 -35 -6 -38 -6 -3 -10 -21 -10 -38 0 -50 -11 -79 -27 -73 -9 4 -11 2 -7
-6 5 -8 2 -9 -9 -5 -15 6 -22 -3 -18 -25 0 -5 -2 -7 -7 -6 -14 5 -49 -27 -46
-44 1 -11 -3 -15 -12 -11 -8 3 -11 10 -7 16 3 6 1 7 -6 3 -9 -6 -9 -11 -1 -21
8 -10 7 -13 -6 -11 -11 0 -20 -9 -25 -24 -4 -14 -7 -19 -8 -12 -1 7 -5 11 -11
7 -5 -3 -7 -12 -3 -21 3 -9 0 -14 -8 -12 -8 2 -13 -4 -11 -14 1 -9 -3 -20 -9
-24 -8 -5 -9 -3 -4 5 5 9 1 9 -14 -1 -20 -12 -26 -31 -23 -70 1 -10 -3 -18 -8
-18 -5 0 -7 -8 -4 -17 4 -11 2 -14 -3 -8 -4 6 -14 11 -21 13 -10 2 -10 -2 -1
-19 8 -16 8 -20 -1 -14 -7 4 -13 -1 -17 -14 -3 -12 -9 -21 -14 -21 -5 0 -6 -6
-3 -14 3 -7 -2 -16 -11 -20 -9 -3 -13 -10 -10 -16 3 -6 -1 -13 -10 -16 -9 -4
-14 -13 -11 -20 3 -7 1 -16 -4 -19 -4 -3 -11 1 -13 7 -3 7 -6 1 -6 -13 -1 -14
-14 -38 -32 -55 -18 -17 -28 -36 -25 -46 2 -10 0 -15 -6 -12 -5 3 -18 -2 -28
-11 -11 -10 -24 -14 -32 -9 -9 5 -8 2 2 -11 13 -16 13 -18 0 -13 -15 5 -50
-31 -50 -50 0 -5 -7 -13 -16 -16 -11 -4 -14 -13 -10 -30 8 -32 -2 -56 -23 -56
-11 0 -12 -3 -4 -8 8 -5 2 -12 -18 -21 -16 -7 -29 -19 -29 -27 0 -8 -9 -14
-20 -14 -11 0 -19 -3 -19 -7 3 -19 -3 -31 -30 -61 -17 -17 -36 -32 -43 -33 -7
0 -4 -4 7 -9 15 -6 16 -9 4 -9 -11 -1 -15 -11 -14 -37 0 -25 -5 -38 -18 -46
-12 -6 -17 -17 -14 -28 4 -14 -1 -17 -19 -15 -13 1 -21 -1 -19 -6 3 -4 -3 -14
-14 -21 -10 -7 -21 -22 -23 -33 -2 -11 -10 -19 -17 -17 -7 1 -10 -2 -7 -7 4
-5 2 -12 -4 -16 -5 -3 -10 -1 -10 5 0 6 -5 8 -10 5 -8 -5 -7 -12 2 -23 7 -9 8
-13 2 -9 -7 4 -19 -4 -28 -18 -9 -14 -21 -23 -25 -21 -4 3 -17 -1 -27 -10 -18
-14 -18 -15 3 -4 18 8 21 8 18 -2 -4 -10 -67 -14 -270 -16 -146 -2 -265 -2
-266 0 -11 77 -10 86 8 91 14 4 15 5 2 6 -22 1 -33 32 -17 43 8 6 5 7 -10 3
-21 -6 -23 -4 -17 14 7 23 -4 27 -24 9 -11 -11 -13 -10 -7 0 4 6 0 19 -8 27
-8 9 -13 22 -10 30 4 8 1 15 -5 15 -6 0 -11 5 -11 11 0 8 5 7 15 -1 9 -7 14
-19 11 -26 -3 -7 -1 -16 4 -19 13 -8 13 22 -1 46 -6 11 -16 18 -24 16 -7 -3
-27 12 -45 33 -18 22 -37 37 -41 34 -5 -3 -6 3 -2 12 4 12 3 15 -5 10 -7 -4
-12 -3 -12 3 0 6 -6 8 -14 5 -8 -3 -47 2 -87 11 -41 9 -84 16 -96 16 -24 -1
-31 14 -10 22 7 2 8 8 3 13 -5 5 -11 4 -13 -3 -3 -7 -11 -13 -19 -13 -8 0 -14
-4 -14 -10 0 -5 -5 -10 -11 -10 -5 0 -7 5 -3 12 5 8 2 9 -9 5 -10 -4 -22 1
-29 12 -9 12 -25 17 -55 17 -22 -1 -39 2 -37 6 2 3 -21 4 -51 1 -53 -5 -60 -2
-57 28 1 3 -11 4 -25 1 -18 -3 -24 -1 -19 7 4 6 13 9 19 5 7 -3 -3 8 -21 24
-18 17 -47 34 -64 37 -73 16 -185 22 -259 12 -25 -3 -52 -1 -60 5 -11 8 -10 9
4 4 11 -4 16 -2 11 5 -3 6 -15 9 -25 6 -11 -3 -19 0 -19 6 0 7 -5 5 -10 -3 -5
-8 -10 -10 -10 -4 0 7 -19 11 -47 10 -27 0 -57 3 -68 8 -16 6 -17 6 -5 -4 12
-9 -6 -10 -80 -6 -112 7 -140 13 -140 33 0 10 -6 12 -20 8 -12 -4 -22 -1 -25
7 -4 9 -23 12 -68 11 -84 -4 -119 -12 -137 -33 -9 -10 -34 -20 -62 -23 -48 -5
-65 6 -29 18 31 9 46 32 32 49 -9 11 -9 16 0 22 8 4 9 3 5 -4 -4 -7 -3 -12 2
-12 6 0 13 15 16 34 5 26 14 37 35 44 22 8 28 17 30 43 4 62 6 74 12 84 4 6 5
20 4 33 -1 14 4 22 14 22 26 1 46 23 47 52 1 15 -3 25 -7 22 -5 -3 -9 -1 -9 5
0 5 5 13 11 17 8 4 7 9 -2 15 -9 5 -9 9 -3 9 8 0 11 36 10 121 -1 117 -1 122
21 130 26 10 58 76 44 93 -5 6 -12 22 -15 36 l-7 25 15 -25 c15 -25 15 -24 9
12 -4 25 -1 44 8 55 9 11 10 14 2 9 -8 -4 -13 -2 -14 6 -7 82 -18 108 -45 108
-19 0 -26 37 -21 116 2 38 0 81 -4 97 -4 15 -4 27 1 27 5 0 4 15 -1 32 -11 41
-11 41 2 32 7 -4 7 2 -1 17 -16 30 -25 39 -17 17 5 -15 4 -16 -13 -6 -10 7
-17 14 -15 16 2 2 -4 25 -14 51 -10 25 -16 53 -14 61 3 10 2 11 -4 3 -6 -8
-13 -8 -26 2 -14 10 -15 14 -5 19 7 3 3 4 -10 2 -17 -3 -22 -1 -18 9 3 9 0 12
-10 8 -9 -3 -12 0 -9 8 8 22 -10 40 -48 49 -25 5 -37 4 -40 -4 -3 -8 -9 -7
-18 3 -8 8 -9 11 -3 8 7 -4 14 -1 17 7 4 9 0 12 -12 9 -11 -3 -21 2 -24 11 -7
19 9 22 17 4 3 -7 4 -4 3 7 -3 28 -20 46 -29 31 -6 -8 -8 -8 -8 0 0 7 -11 15
-25 18 -29 7 -33 22 -7 29 12 4 11 5 -6 6 -12 0 -25 8 -28 16 -5 12 -9 13 -21
4 -8 -7 -13 -8 -12 -3 4 23 -2 45 -11 39 -5 -3 -10 -1 -10 4 0 6 5 11 10 11 6
0 5 6 -2 14 -11 12 -14 11 -20 -3 -4 -9 -7 -10 -7 -3 -1 6 -8 12 -17 12 -8 0
-12 5 -9 10 3 6 0 10 -8 10 -16 0 -31 26 -19 33 4 2 1 2 -7 0 -21 -5 -61 36
-53 55 5 14 4 15 -10 2 -13 -13 -14 -16 -2 -23 8 -4 14 -12 14 -17 0 -6 -9 -2
-20 7 -11 10 -20 23 -20 30 0 7 -10 13 -21 13 -12 0 -28 8 -35 18 -9 10 -17
13 -21 7 -11 -14 -47 -19 -38 -6 6 11 2 15 -6 7z m3951 -1120 c0 -2 -7 -9 -15
-16 -13 -11 -14 -10 -9 4 5 14 24 23 24 12z m-3255 -465 c3 -5 1 -12 -5 -16
-5 -3 -10 1 -10 9 0 18 6 21 15 7z m-1668 -287 c-3 -3 -12 -4 -19 -1 -8 3 -5
6 6 6 11 1 17 -2 13 -5z m4357 -22 c3 -5 -1 -9 -9 -9 -8 0 -12 4 -9 9 3 4 7 8
9 8 2 0 6 -4 9 -8z m-2834 -7 c0 -2 -9 -9 -20 -15 -12 -6 -20 -7 -20 -1 0 5 8
12 18 14 9 3 18 5 20 6 1 0 2 -1 2 -4z m1090 -139 c0 -2 -7 -7 -16 -10 -8 -3
-12 -2 -9 4 6 10 25 14 25 6z m1420 -336 c0 -5 -5 -10 -11 -10 -5 0 -7 5 -4
10 3 6 8 10 11 10 2 0 4 -4 4 -10z m-1584 -1048 c-10 -2 -22 0 -28 6 -6 6 0 7
19 4 21 -5 23 -7 9 -10z m-1036 4 c0 -2 -9 -6 -20 -9 -11 -3 -18 -1 -14 4 5 9
34 13 34 5z m254 -611 c-5 -11 -10 -12 -25 -2 -18 11 -18 12 -1 18 22 8 33 2
26 -16z m869 -2 c-4 -10 -2 -14 5 -9 6 3 14 1 18 -5 5 -8 3 -9 -6 -4 -10 6
-12 4 -6 -11 7 -18 6 -18 -12 1 -14 14 -16 24 -10 33 14 17 19 15 11 -5z
m2422 -31 c-3 -3 -11 0 -18 7 -9 10 -8 11 6 5 10 -3 15 -9 12 -12z m-2389 -17
c-3 -10 1 -15 11 -15 9 0 14 -3 10 -6 -3 -3 -15 -3 -26 1 -17 5 -18 9 -8 20
16 19 20 19 13 0z m2384 -109 c0 -3 -4 -8 -10 -11 -5 -3 -10 -1 -10 4 0 6 5
11 10 11 6 0 10 -2 10 -4z m-500 -111 c-7 -8 -17 -15 -22 -15 -6 0 -5 7 2 15
7 8 17 15 22 15 6 0 5 -7 -2 -15z m510 -150 c0 -2 -6 -5 -13 -8 -8 -3 -14 1
-14 8 0 7 6 11 14 8 7 -3 13 -6 13 -8z m-5145 -94 c3 -5 2 -12 -3 -15 -5 -3
-9 1 -9 9 0 17 3 19 12 6z m259 -317 c3 -8 2 -12 -4 -9 -6 3 -10 10 -10 16 0
14 7 11 14 -7z m437 -93 c-8 -5 -11 -17 -7 -32 6 -20 5 -21 -4 -7 -6 10 -17
15 -26 11 -13 -5 -14 -3 -6 13 6 11 21 20 34 21 16 2 19 0 9 -6z m6 -163 c-3
-8 -6 -5 -6 6 -1 11 2 17 5 13 3 -3 4 -12 1 -19z m4420 -320 c-3 -8 -6 -5 -6
6 -1 11 2 17 5 13 3 -3 4 -12 1 -19z m0 -50 c-3 -7 -5 -2 -5 12 0 14 2 19 5
13 2 -7 2 -19 0 -25z m-457 -286 c-7 -3 -6 -9 2 -20 12 -14 10 -14 -12 -2 -16
8 -20 15 -12 18 10 3 10 7 0 20 -12 14 -11 14 10 1 12 -8 17 -16 12 -17z
m-4355 -222 c3 -6 -1 -7 -9 -4 -18 7 -21 14 -7 14 6 0 13 -4 16 -10z m-15 -19
c0 -6 -4 -12 -8 -15 -5 -3 -9 1 -9 9 0 8 4 15 9 15 4 0 8 -4 8 -9z m3473 -46
c-3 -9 -8 -14 -10 -11 -3 3 -2 9 2 15 9 16 15 13 8 -4z m-620 -130 c-3 -9 -8
-14 -10 -11 -3 3 -2 9 2 15 9 16 15 13 8 -4z m-1488 -125 c3 -5 -1 -10 -10
-10 -9 0 -13 5 -10 10 3 6 8 10 10 10 2 0 7 -4 10 -10z m1059 -206 c3 -8 2
-12 -4 -9 -6 3 -10 10 -10 16 0 14 7 11 14 -7z"/>
<path d="M2400 8065 c-11 -13 -10 -14 4 -9 9 3 16 10 16 15 0 13 -6 11 -20 -6z"/>
<path d="M2348 8028 c5 -5 16 -8 23 -6 8 3 3 7 -10 11 -17 4 -21 3 -13 -5z"/>
<path d="M1941 7374 c0 -11 3 -14 6 -6 3 7 2 16 -1 19 -3 4 -6 -2 -5 -13z"/>
<path d="M7148 7313 c7 -3 16 -2 19 1 4 3 -2 6 -13 5 -11 0 -14 -3 -6 -6z"/>
<path d="M3911 7034 c0 -11 3 -14 6 -6 3 7 2 16 -1 19 -3 4 -6 -2 -5 -13z"/>
<path d="M7420 6649 c0 -6 -7 -8 -17 -5 -10 4 -14 4 -10 0 4 -4 0 -12 -9 -18
-13 -10 -13 -12 5 -12 11 0 17 4 15 8 -8 13 11 9 26 -4 12 -11 12 -10 2 3 -9
12 -9 18 0 27 9 9 9 12 0 12 -7 0 -12 -5 -12 -11z"/>
<path d="M6640 6601 c0 -6 4 -13 10 -16 6 -3 7 1 4 9 -7 18 -14 21 -14 7z"/>
<path d="M7308 6543 c7 -3 16 -2 19 1 4 3 -2 6 -13 5 -11 0 -14 -3 -6 -6z"/>
<path d="M2016 6527 c3 -10 9 -15 12 -12 3 3 0 11 -7 18 -10 9 -11 8 -5 -6z"/>
<path d="M6588 6503 c7 -3 16 -2 19 1 4 3 -2 6 -13 5 -11 0 -14 -3 -6 -6z"/>
<path d="M6566 6468 c3 -5 10 -6 15 -3 13 9 11 12 -6 12 -8 0 -12 -4 -9 -9z"/>
<path d="M7095 6250 c-3 -5 -1 -10 4 -10 6 0 11 5 11 10 0 6 -2 10 -4 10 -3 0
-8 -4 -11 -10z"/>
<path d="M5006 6137 c3 -10 9 -15 12 -12 3 3 0 11 -7 18 -10 9 -11 8 -5 -6z"/>
<path d="M5680 5871 c0 -36 5 -39 19 -12 8 14 7 22 -4 31 -13 11 -15 8 -15
-19z"/>
<path d="M6840 5865 c0 -8 2 -15 4 -15 2 0 6 7 10 15 3 8 1 15 -4 15 -6 0 -10
-7 -10 -15z"/>
<path d="M5500 5830 c0 -5 5 -10 11 -10 5 0 7 5 4 10 -3 6 -8 10 -11 10 -2 0
-4 -4 -4 -10z"/>
<path d="M5502 5770 c0 -14 2 -19 5 -12 2 6 2 18 0 25 -3 6 -5 1 -5 -13z"/>
<path d="M5608 5733 c7 -3 16 -2 19 1 4 3 -2 6 -13 5 -11 0 -14 -3 -6 -6z"/>
<path d="M4732 5574 c10 -10 20 -16 22 -13 3 3 -5 11 -17 18 -21 13 -21 12 -5
-5z"/>
<path d="M4688 5543 c7 -3 16 -2 19 1 4 3 -2 6 -13 5 -11 0 -14 -3 -6 -6z"/>
<path d="M4128 5473 c7 -3 16 -2 19 1 4 3 -2 6 -13 5 -11 0 -14 -3 -6 -6z"/>
<path d="M4253 5473 c9 -2 23 -2 30 0 6 3 -1 5 -18 5 -16 0 -22 -2 -12 -5z"/>
<path d="M3926 5342 c-3 -5 1 -9 9 -9 8 0 12 4 9 9 -3 4 -7 8 -9 8 -2 0 -6 -4
-9 -8z"/>
<path d="M5008 5033 c7 -3 16 -2 19 1 4 3 -2 6 -13 5 -11 0 -14 -3 -6 -6z"/>
<path d="M3926 4971 c-4 -5 3 -7 14 -4 23 6 26 13 6 13 -8 0 -17 -4 -20 -9z"/>
<path d="M4288 4843 c6 -2 18 -2 25 0 6 3 1 5 -13 5 -14 0 -19 -2 -12 -5z"/>
<path d="M4510 4839 c0 -5 5 -7 10 -4 6 3 10 8 10 11 0 2 -4 4 -10 4 -5 0 -10
-5 -10 -11z"/>
<path d="M7105 4580 c-3 -5 -1 -10 4 -10 6 0 11 5 11 10 0 6 -2 10 -4 10 -3 0
-8 -4 -11 -10z"/>
<path d="M7105 4300 c6 -30 16 -40 12 -12 -2 12 -6 24 -10 28 -3 4 -4 -4 -2
-16z"/>
<path d="M2180 4210 c0 -5 5 -10 10 -10 6 0 10 5 10 10 0 6 -4 10 -10 10 -5 0
-10 -4 -10 -10z"/>
<path d="M3885 4170 c3 -5 14 -10 23 -10 15 0 15 2 2 10 -20 13 -33 13 -25 0z"/>
<path d="M3920 4146 c0 -2 7 -7 16 -10 8 -3 12 -2 9 4 -6 10 -25 14 -25 6z"/>
<path d="M3930 4110 c-9 -6 -10 -10 -3 -10 6 0 15 5 18 10 8 12 4 12 -15 0z"/>
<path d="M3831 4014 c0 -11 3 -14 6 -6 3 7 2 16 -1 19 -3 4 -6 -2 -5 -13z"/>
<path d="M1688 3859 c-10 -5 -15 -16 -11 -25 5 -13 8 -13 24 2 31 28 22 44
-13 23z"/>
<path d="M4521 3504 c0 -11 3 -14 6 -6 3 7 2 16 -1 19 -3 4 -6 -2 -5 -13z"/>
<path d="M3250 3436 c-8 -10 -7 -15 4 -19 10 -4 13 -1 9 9 -4 10 0 12 11 8 9
-3 16 -4 16 -1 0 12 -30 14 -40 3z"/>
<path d="M7101 3134 c0 -11 3 -14 6 -6 3 7 2 16 -1 19 -3 4 -6 -2 -5 -13z"/>
<path d="M3166 2628 c3 -5 10 -6 15 -3 13 9 11 12 -6 12 -8 0 -12 -4 -9 -9z"/>
<path d="M5230 2545 c0 -8 5 -15 10 -15 6 0 10 7 10 15 0 8 -4 15 -10 15 -5 0
-10 -7 -10 -15z"/>
<path d="M2512 2534 c-7 -8 -17 -12 -21 -10 -4 3 -8 -1 -8 -9 0 -10 4 -12 12
-5 7 5 14 8 16 5 3 -2 10 5 17 15 14 23 3 26 -16 4z"/>
<path d="M4324 2508 c0 -16 2 -16 18 -1 10 9 18 17 18 17 0 1 -8 2 -18 2 -10
0 -18 -8 -18 -18z"/>
<path d="M2293 2423 c-26 -5 -27 -7 -13 -34 13 -24 52 -27 43 -2 -4 10 -2 14
4 10 7 -5 9 0 6 13 -3 11 -8 19 -12 19 -3 -1 -16 -4 -28 -6z"/>
<path d="M5765 2310 c-3 -6 1 -7 9 -4 18 7 21 14 7 14 -6 0 -13 -4 -16 -10z"/>
<path d="M5680 2181 c0 -6 4 -13 10 -16 6 -3 7 1 4 9 -7 18 -14 21 -14 7z"/>
<path d="M5181 2154 c0 -11 3 -14 6 -6 3 7 2 16 -1 19 -3 4 -6 -2 -5 -13z"/>
<path d="M5630 2015 c0 -8 4 -15 10 -15 5 0 7 7 4 15 -4 8 -8 15 -10 15 -2 0
-4 -7 -4 -15z"/>
<path d="M3650 1910 c-8 -5 -10 -10 -5 -10 6 0 17 5 25 10 8 5 11 10 5 10 -5
0 -17 -5 -25 -10z"/>
<path d="M3468 1873 c7 -3 16 -2 19 1 4 3 -2 6 -13 5 -11 0 -14 -3 -6 -6z"/>
<path d="M7325 1780 c-3 -5 -1 -10 4 -10 6 0 11 5 11 10 0 6 -2 10 -4 10 -3 0
-8 -4 -11 -10z"/>
<path d="M4408 1773 c7 -3 16 -2 19 1 4 3 -2 6 -13 5 -11 0 -14 -3 -6 -6z"/>
</g>
</svg>
